<svg width="941" height="190" viewBox="0 0 941 190" fill="none" xmlns="http://www.w3.org/2000/svg">
<path d="M111.648 142.122L48.9795 164.706C23.6824 173.823 0.928818 146.155 14.6084 123.005C21.286 111.705 19.3976 97.2749 10.01 88.1007C-8.25879 70.2471 4.38167 39.2273 29.9258 39.2273H80.0724C85.3066 39.2273 90.4898 38.2 95.3284 36.2037L172.036 4.55492C180.733 0.96687 190.416 0.558806 199.383 3.40245L279.547 28.8229C287.018 31.1917 295.019 31.314 302.558 29.1745L397.644 2.19089C404.987 0.107202 412.772 0.167758 420.082 2.3654L510.789 29.6378C516.944 31.4883 523.454 31.8285 529.768 30.6295L672.539 3.51821C686.885 0.793992 701.433 7.15219 709.178 19.5315C716.66 31.4906 730.525 37.8704 744.475 35.7729L877.692 15.7425C904.232 11.7521 927.094 34.5133 923.221 61.0702L919.547 86.2654C917.973 97.0545 922.333 107.855 930.955 114.528C949.497 128.879 938.81 158.573 915.375 157.815L763.384 152.903C754.391 152.613 745.563 155.362 738.326 160.708L710.174 181.503C701.338 188.03 690.206 190.635 679.391 188.708L580.011 170.997C571.087 169.406 561.954 172.334 555.618 178.817C547.963 186.65 536.377 189.169 526.16 185.222L459.041 159.292C447.84 154.965 435.287 155.899 424.849 161.836L408.847 170.938C396.547 177.934 381.466 177.911 369.187 170.877L349.633 159.676C341.49 155.011 331.965 153.358 322.726 155.006L196.345 177.55C180.642 180.351 164.885 172.917 157.062 159.016C148.079 143.053 128.881 135.911 111.648 142.122Z" fill="#B85042" stroke="#B85042"/>
</svg>
